<!-- * Vite icon -->
<!-- <svg width="410" height="404" viewBox="0 0 410 404" fill="none" xmlns="http://www.w3.org/2000/svg"><path d="M399.641 59.5246L215.643 388.545C211.844 395.338 202.084 395.378 198.228 388.618L10.5817 59.5563C6.38087 52.1896 12.6802 43.2665 21.0281 44.7586L205.223 77.6824C206.398 77.8924 207.601 77.8904 208.776 77.6763L389.119 44.8058C397.439 43.2894 403.768 52.1434 399.641 59.5246Z" fill="url(#paint0_linear)"/><path d="M292.965 1.5744L156.801 28.2552C154.563 28.6937 152.906 30.5903 152.771 32.8664L144.395 174.33C144.198 177.662 147.258 180.248 150.51 179.498L188.42 170.749C191.967 169.931 195.172 173.055 194.443 176.622L183.18 231.775C182.422 235.487 185.907 238.661 189.532 237.56L212.947 230.446C216.577 229.344 220.065 232.527 219.297 236.242L201.398 322.875C200.278 328.294 207.486 331.249 210.492 326.603L212.5 323.5L323.454 102.072C325.312 98.3645 322.108 94.137 318.036 94.9228L279.014 102.454C275.347 103.161 272.227 99.746 273.262 96.1583L298.731 7.86689C299.767 4.27314 296.636 0.855181 292.965 1.5744Z" fill="url(#paint1_linear)"/><defs><linearGradient id="paint0_linear" x1="6.00017" y1="32.9999" x2="235" y2="344" gradientUnits="userSpaceOnUse"><stop stop-color="#41D1FF"/><stop offset="1" stop-color="#BD34FE"/></linearGradient><linearGradient id="paint1_linear" x1="194.651" y1="8.81818" x2="236.076" y2="292.989" gradientUnits="userSpaceOnUse"><stop stop-color="#FFEA83"/><stop offset="0.0833333" stop-color="#FFDD35"/><stop offset="1" stop-color="#FFA800"/></linearGradient></defs></svg> -->

<!-- * icon -->
<!-- <svg xmlns="http://www.w3.org/2000/svg" viewBox="0 0 128 128"><g color="#000" font-weight="400" font-family="sans-serif"><path style="line-height:normal;font-variant-ligatures:normal;font-variant-position:normal;font-variant-caps:normal;font-variant-numeric:normal;font-variant-alternates:normal;font-variant-east-asian:normal;font-feature-settings:normal;font-variation-settings:normal;text-indent:0;text-align:start;text-decoration-line:none;text-decoration-style:solid;text-decoration-color:#000;text-transform:none;text-orientation:mixed;white-space:normal;shape-padding:0;shape-margin:0;inline-size:0;isolation:auto;mix-blend-mode:normal;solid-color:#000;solid-opacity:1" d="M16.219 15.762a1.129 1.129 0 00-1.076 1.399l24.394 98.742a1.129 1.129 0 001.879.544l73.386-70.59a1.129 1.129 0 00-.47-1.899L16.55 15.806a1.129 1.129 0 00-.331-.044zm1.584 2.754l94.024 27.07-70.566 67.877-23.458-94.947z" overflow="visible"/><path style="line-height:normal;font-variant-ligatures:normal;font-variant-position:normal;font-variant-caps:normal;font-variant-numeric:normal;font-variant-alternates:normal;font-variant-east-asian:normal;font-feature-settings:normal;font-variation-settings:normal;text-indent:0;text-align:start;text-decoration-line:none;text-decoration-style:solid;text-decoration-color:#000;text-transform:none;text-orientation:mixed;white-space:normal;shape-padding:0;shape-margin:0;inline-size:0;isolation:auto;mix-blend-mode:normal;solid-color:#000;solid-opacity:1" d="M65.137 29.84a1.129 1.129 0 00-.807.315L27.654 65.46a1.129 1.129 0 00.471 1.898L76.984 81.44a1.129 1.129 0 001.409-1.355L66.21 30.698a1.129 1.129 0 00-1.073-.858zm-.651 3.3L75.734 78.73l-45.104-13L64.486 33.14z" overflow="visible"/><path style="line-height:normal;font-variant-ligatures:normal;font-variant-position:normal;font-variant-caps:normal;font-variant-numeric:normal;font-variant-alternates:normal;font-variant-east-asian:normal;font-feature-settings:normal;font-variation-settings:normal;text-indent:0;text-align:start;text-decoration-line:none;text-decoration-style:solid;text-decoration-color:#000;text-transform:none;text-orientation:mixed;white-space:normal;shape-padding:0;shape-margin:0;inline-size:0;isolation:auto;mix-blend-mode:normal;solid-color:#000;solid-opacity:1" d="M46.914 47.313a1.129 1.129 0 00-1.076 1.399l6.054 24.531a1.129 1.129 0 001.88.543l18.222-17.563a1.129 1.129 0 00-.472-1.898l-24.277-6.968a1.129 1.129 0 00-.331-.044zm1.583 2.751l20.522 5.89L53.614 70.8l-5.117-20.736z" overflow="visible"/><path style="line-height:normal;font-variant-ligatures:normal;font-variant-position:normal;font-variant-caps:normal;font-variant-numeric:normal;font-variant-alternates:normal;font-variant-east-asian:normal;font-feature-settings:normal;font-variation-settings:normal;text-indent:0;text-align:start;text-decoration-line:none;text-decoration-style:solid;text-decoration-color:#000;text-transform:none;text-orientation:mixed;white-space:normal;shape-padding:0;shape-margin:0;inline-size:0;isolation:auto;mix-blend-mode:normal;solid-color:#000;solid-opacity:1" d="M40.902 22.809a1.129 1.129 0 00-.807.316L21.873 40.687a1.129 1.129 0 00.472 1.898l24.273 6.969a1.129 1.129 0 001.408-1.356l-6.051-24.53a1.129 1.129 0 00-1.073-.86zm-.65 3.3l5.114 20.736-20.517-5.89 15.403-14.847zM89.453 36.793a1.129 1.129 0 00-.806.316L70.423 54.67a1.129 1.129 0 00.472 1.899l24.274 6.968a1.129 1.129 0 001.408-1.356l-6.05-24.53a1.129 1.129 0 00-1.074-.859zm-.65 3.3l5.114 20.737L73.4 54.94l15.403-14.846zM52.944 71.864a1.129 1.129 0 00-.74.315L33.982 89.742a1.129 1.129 0 00.472 1.898l24.278 6.968a1.129 1.129 0 001.407-1.355l-6.055-24.531a1.129 1.129 0 00-1.14-.858zm-.582 3.3l5.118 20.737-20.522-5.89 15.404-14.846z" overflow="visible"/></g></svg> -->

<!-- * Customized -->
<svg viewBox="0 0 128 128" version="1.1" id="svg12" sodipodi:docname="threejs-original-new.svg" inkscape:version="1.1 (c68e22c387, 2021-05-23)" xmlns:inkscape="http://www.inkscape.org/namespaces/inkscape" xmlns:sodipodi="http://sodipodi.sourceforge.net/DTD/sodipodi-0.dtd" xmlns="http://www.w3.org/2000/svg" xmlns:svg="http://www.w3.org/2000/svg"><defs id="defs16"/><sodipodi:namedview id="namedview14" pagecolor="#ffffff" bordercolor="#666666" borderopacity="1.0" inkscape:pageshadow="2" inkscape:pageopacity="0.0" inkscape:pagecheckerboard="0" showgrid="false" inkscape:zoom="6.5" inkscape:cx="60.846154" inkscape:cy="63.923077" inkscape:window-width="1920" inkscape:window-height="1017" inkscape:window-x="-8" inkscape:window-y="760" inkscape:window-maximized="1" inkscape:current-layer="svg12"/><g color="#000" font-weight="400" font-family="sans-serif" id="g10"><path style="line-height:normal;font-variant-ligatures:normal;font-variant-position:normal;font-variant-caps:normal;font-variant-numeric:normal;font-variant-alternates:normal;font-variant-east-asian:normal;font-feature-settings:normal;font-variation-settings:normal;text-indent:0;text-align:start;text-decoration-line:none;text-decoration-style:solid;text-decoration-color:#000;text-transform:none;text-orientation:mixed;white-space:normal;shape-padding:0;shape-margin:0;inline-size:0;isolation:auto;mix-blend-mode:normal;solid-color:#000;solid-opacity:1" d="M16.219 15.762a1.129 1.129 0 00-1.076 1.399l24.394 98.742a1.129 1.129 0 001.879.544l73.386-70.59a1.129 1.129 0 00-.47-1.899L16.55 15.806a1.129 1.129 0 00-.331-.044zm1.584 2.754l94.024 27.07-70.566 67.877-23.458-94.947z" overflow="visible" id="path2" /><path style="line-height:normal;font-variant-ligatures:normal;font-variant-position:normal;font-variant-caps:normal;font-variant-numeric:normal;font-variant-alternates:normal;font-variant-east-asian:normal;font-feature-settings:normal;font-variation-settings:normal;text-indent:0;text-align:start;text-decoration-line:none;text-decoration-style:solid;text-decoration-color:#000;text-transform:none;text-orientation:mixed;white-space:normal;shape-padding:0;shape-margin:0;inline-size:0;isolation:auto;mix-blend-mode:normal;solid-color:#000;solid-opacity:1" d="M65.137 29.84a1.129 1.129 0 00-.807.315L27.654 65.46a1.129 1.129 0 00.471 1.898L76.984 81.44a1.129 1.129 0 001.409-1.355L66.21 30.698a1.129 1.129 0 00-1.073-.858zm-.651 3.3L75.734 78.73l-45.104-13L64.486 33.14z" overflow="visible" id="path4"/><path style="line-height:normal;font-variant-ligatures:normal;font-variant-position:normal;font-variant-caps:normal;font-variant-numeric:normal;font-variant-alternates:normal;font-variant-east-asian:normal;font-feature-settings:normal;font-variation-settings:normal;text-indent:0;text-align:start;text-decoration-line:none;text-decoration-style:solid;text-decoration-color:#000;text-transform:none;text-orientation:mixed;white-space:normal;shape-padding:0;shape-margin:0;inline-size:0;isolation:auto;mix-blend-mode:normal;solid-color:#000;solid-opacity:1" d="M46.914 47.313a1.129 1.129 0 00-1.076 1.399l6.054 24.531a1.129 1.129 0 001.88.543l18.222-17.563a1.129 1.129 0 00-.472-1.898l-24.277-6.968a1.129 1.129 0 00-.331-.044zm1.583 2.751l20.522 5.89L53.614 70.8l-5.117-20.736z" overflow="visible" id="path6" /><path style="line-height:normal;font-variant-ligatures:normal;font-variant-position:normal;font-variant-caps:normal;font-variant-numeric:normal;font-variant-alternates:normal;font-variant-east-asian:normal;font-feature-settings:normal;font-variation-settings:normal;text-indent:0;text-align:start;text-decoration-line:none;text-decoration-style:solid;text-decoration-color:#000;text-transform:none;text-orientation:mixed;white-space:normal;shape-padding:0;shape-margin:0;inline-size:0;isolation:auto;mix-blend-mode:normal;solid-color:#000;solid-opacity:1" d="M40.902 22.809a1.129 1.129 0 00-.807.316L21.873 40.687a1.129 1.129 0 00.472 1.898l24.273 6.969a1.129 1.129 0 001.408-1.356l-6.051-24.53a1.129 1.129 0 00-1.073-.86zm-.65 3.3l5.114 20.736-20.517-5.89 15.403-14.847zM89.453 36.793a1.129 1.129 0 00-.806.316L70.423 54.67a1.129 1.129 0 00.472 1.899l24.274 6.968a1.129 1.129 0 001.408-1.356l-6.05-24.53a1.129 1.129 0 00-1.074-.859zm-.65 3.3l5.114 20.737L73.4 54.94l15.403-14.846zM52.944 71.864a1.129 1.129 0 00-.74.315L33.982 89.742a1.129 1.129 0 00.472 1.898l24.278 6.968a1.129 1.129 0 001.407-1.355l-6.055-24.531a1.129 1.129 0 00-1.14-.858zm-.582 3.3l5.118 20.737-20.522-5.89 15.404-14.846z" overflow="visible" id="path8"/></g><path style="fill:#ff2a7f;fill-opacity:1;stroke-width:0.153846" d="M 39.886935,116.34615 C 39.74906,116.18997 34.498346,95.220943 27.382387,66.408512 L 15.115516,16.740103 15.419347,16.33159 c 0.167106,-0.224682 0.446208,-0.429791 0.620226,-0.455798 0.247661,-0.03701 19.816698,5.482792 25.806581,7.279218 0.676923,0.203016 6.076923,1.759825 12,3.459576 5.923077,1.699752 11.807692,3.39471 13.076923,3.766575 1.269231,0.371865 6.807692,1.964885 12.307692,3.540045 5.5,1.575159 10.553846,3.029672 11.230769,3.232252 0.676924,0.20258 6.319231,1.830939 12.538462,3.618576 6.21923,1.787637 11.46346,3.350677 11.65385,3.473423 0.39223,0.252883 0.47789,1.071948 0.15384,1.471035 -0.10577,0.130262 -8.39524,8.12234 -18.421048,17.760174 -22.543305,21.670931 -26.725774,25.692791 -42.590165,40.954664 -11.51746,11.08004 -12.710675,12.18405 -13.168463,12.18405 -0.286323,0 -0.605894,-0.11609 -0.741079,-0.26923 z m 9.534757,-10.63196 c 4.252685,-4.09181 7.732154,-7.485588 7.732154,-7.54173 0,-0.109805 -21.105331,-6.195334 -21.190561,-6.110105 -0.02812,0.02812 0.991623,4.265979 2.266095,9.417465 1.274474,5.15148 2.460346,9.97519 2.635274,10.71935 0.285521,1.21463 0.343969,1.33265 0.571468,1.15385 0.13938,-0.10955 3.732886,-3.54702 7.98557,-7.63883 z M 54.959343,85.353268 C 53.585551,79.79372 52.416346,75.224489 52.361111,75.199422 52.240765,75.144806 37,89.812852 37,89.983294 c 0,0.06517 4.586538,1.433863 10.192308,3.041538 8.36854,2.400008 10.198797,2.879534 10.228574,2.679876 0.01995,-0.133743 -1.087747,-4.791891 -2.461539,-10.35144 z m 12.502195,3.018987 c 4.188462,-4.02551 7.633656,-7.368573 7.655987,-7.429027 0.03722,-0.100765 -20.429788,-6.06848 -20.513977,-5.98141 -0.06712,0.06942 5.075786,20.730499 5.160064,20.730019 0.0454,-3.08e-4 3.509465,-3.294071 7.697926,-7.319582 z M 42.923077,81.234874 c 3.638461,-3.496 6.854231,-6.586336 7.146154,-6.867414 0.291923,-0.281077 0.499615,-0.542026 0.461538,-0.579886 -0.105961,-0.10536 -20.481033,-5.965516 -20.539189,-5.907359 -0.02803,0.02803 1.10436,4.737293 2.516423,10.465028 l 2.567385,10.414065 0.616152,-0.584036 c 0.338883,-0.321218 3.593075,-3.444398 7.231537,-6.940398 z M 75.766889,78.653846 C 75.755997,78.117195 70.569368,57.629726 70.4561,57.675955 70.157995,57.797622 54.837191,72.657703 54.922205,72.742718 c 0.0948,0.0948 20.336803,5.985885 20.654718,6.0112 0.105769,0.0084 0.191254,-0.03661 0.189966,-0.100072 z M 93.613731,63.099875 c -0.0022,-0.130912 -20.763113,-6.078698 -20.864391,-5.977421 -0.06354,0.06354 4.858068,20.337875 5.098285,21.002163 0.06676,0.184614 15.770152,-14.780363 15.766106,-15.024742 z m -42.057688,8.477048 c -0.04404,-0.148077 -1.159645,-4.665385 -2.479117,-10.038461 -2.865204,-11.667511 -2.679729,-10.954551 -2.8342,-10.894567 -0.06857,0.02663 -3.641411,3.439843 -7.939646,7.584927 l -7.814974,7.536512 0.525179,0.150278 c 0.288847,0.08265 4.990561,1.444508 10.448253,3.026345 5.457693,1.581835 9.979665,2.882395 10.04883,2.890131 0.06916,0.0077 0.08972,-0.107088 0.04568,-0.255165 z m 8.868569,-7.212649 c 8.481923,-8.16654 8.65435,-8.336594 8.554286,-8.436657 -0.109101,-0.109103 -20.46151,-5.958965 -20.518183,-5.897511 -0.09019,0.0978 5.076448,20.739125 5.191116,20.739125 0.06626,0 3.114011,-2.882231 6.772781,-6.404957 z M 37.522711,56.079955 c 6.631734,-6.389873 7.307287,-7.08533 6.986387,-7.192207 -0.893324,-0.297526 -20.657832,-5.944142 -20.690739,-5.911234 -0.03248,0.03248 4.907785,20.201555 5.121888,20.910551 0.110613,0.36629 -0.08463,0.5439 8.582464,-7.80711 z m 53.941194,-5.541493 c -1.355591,-5.5 -2.516453,-10.118982 -2.579693,-10.264404 -0.09223,-0.21208 -1.642061,1.203582 -7.831863,7.153847 -4.244286,4.080037 -7.722466,7.452864 -7.729291,7.495172 -0.02775,0.172052 20.524527,5.958772 20.564327,5.790111 0.02268,-0.0961 -1.06789,-4.674726 -2.42348,-10.174726 z m 13.899945,1.384615 c 5.27998,-5.079409 6.50458,-6.330834 6.28877,-6.426531 -0.55767,-0.247283 -20.553166,-5.954974 -20.621702,-5.88644 -0.03951,0.03952 1.093388,4.809452 2.51756,10.59986 l 2.589404,10.528014 1.334596,-1.253605 c 0.734028,-0.689483 4.285142,-4.092067 7.891372,-7.561298 z m -35.748465,1.801895 c 0,-0.204558 -4.917227,-20.09126 -5.040305,-20.384464 -0.09432,-0.224699 -1.526671,1.081235 -7.846348,7.153846 l -7.730964,7.428723 0.501117,0.148548 c 1.840532,0.545595 19.908357,5.74936 20.001115,5.760577 0.06346,0.0077 0.115385,-0.04058 0.115385,-0.10723 z M 80,45.543062 c 3.976923,-3.826044 7.217014,-6.99693 7.200203,-7.046414 -0.02718,-0.08001 -20.560946,-6.043125 -20.601046,-5.982657 -0.02231,0.03364 5.004269,20.432438 5.101714,20.703726 0.05852,0.162923 0.2028,0.09994 0.573281,-0.250248 C 72.546446,52.710089 76.023077,49.369106 80,45.543062 Z M 45.399694,46.653846 C 45.354274,46.505769 44.204497,41.85 42.844632,36.307692 41.484768,30.765385 40.354346,26.168942 40.332585,26.093375 c -0.03871,-0.13441 -15.367914,14.551073 -15.451896,14.803019 -0.03331,0.09993 19.967088,5.977069 20.475833,6.016849 0.06916,0.0054 0.08859,-0.11132 0.04317,-0.259397 z m 12.040264,-9.730769 c 3.042808,-2.919231 5.538604,-5.344783 5.546211,-5.390115 0.01592,-0.09484 -20.476335,-6.017155 -20.553483,-5.940008 -0.02802,0.02802 1.104925,4.728281 2.517662,10.445017 l 2.568614,10.394063 2.194307,-2.100632 c 1.206871,-1.155348 4.68388,-4.489094 7.726689,-7.408325 z m -24.62383,-6.683904 c 4.00197,-3.856635 5.828632,-5.71499 5.692307,-5.791072 -0.329709,-0.184009 -20.632413,-5.990789 -20.702171,-5.921032 -0.05502,0.05502 4.909932,20.397443 5.12432,20.995402 0.05077,
0.141609 0.743946,-0.435736 2.034749,-1.69474 1.076759,-1.050236 4.609617,-4.465086 7.850795,-7.588558 z" id="path170"/><path style="fill:#2affd5;fill-opacity:1;stroke-width:0.153846" d="M 51.123598,60.438104 C 49.731711,54.82407 48.599905,50.217281 48.608472,50.200796 c 0.04111,-0.07911 20.035937,5.736766 20.05413,5.833127 0.01151,0.06096 -2.902099,2.928478 -6.474684,6.372251 -3.572586,3.443772 -6.954162,6.706423 -7.514614,7.250334 l -1.019004,0.98893 z" id="path322"/><path style="fill:#d4ff2a;fill-opacity:1;stroke-width:0.153846" d="m 72.307692,77.680942 c -1.692307,-0.49827 -6.246231,-1.818547 -10.119831,-2.93395 -3.873599,-1.115403 -7.023599,-2.081465 -7,-2.146805 0.0236,-0.06534 3.467972,-3.417365 7.65416,-7.448944 7.442759,-7.167874 7.613987,-7.3205 7.734785,-6.894539 0.09776,0.34472 4.634612,18.643571 4.961726,20.012527 0.04549,0.190384 0.02947,0.339741 -0.0356,0.331904 C 75.437857,78.593289 74,78.179211 72.307692,77.680942 Z" id="path702"/><path style="fill:#d4ff2a;fill-opacity:1;stroke-width:0.153846" d="m 40.952396,68.637642 c -5.483875,-1.585013 -9.963348,-2.948051 -9.954385,-3.028973 0.0178,-0.160679 15.077454,-14.685592 15.226251,-14.685592 0.08314,0 5.107035,20.231663 5.090529,20.5 -0.0039,0.06346 -0.09364,0.111115 -0.199406,0.105897 -0.10577,-0.0052 -4.679114,-1.306319 -10.162989,-2.891332 z" id="path741"/><path style="fill:#d4ff2a;fill-opacity:1;stroke-width:0.153846" d="m 59.424123,50.780765 c -5.478271,-1.571728 -9.960963,-2.901851 -9.961538,-2.955829 -8.93e-4,-0.08377 7.830812,-7.679289 13.301534,-12.900391 l 1.687195,-1.610212 2.497451,10.073603 c 1.373597,5.540481 2.48359,10.113409 2.46665,10.162059 -0.01694,0.04865 -4.513021,-1.197501 -9.991292,-2.76923 z" id="path780"/><path style="fill:#00ccff;fill-opacity:1;stroke-width:0.153846" d="m 83.769231,57.844418 c -5.288462,-1.519089 -9.738806,-2.815438 -9.889655,-2.880773 -0.22307,-0.09662 1.08188,-1.425411 6.990408,-7.118141 3.995572,-3.849643 7.411144,-7.114816 7.590158,-7.255941 l 0.325481,-0.25659 2.418806,9.795052 c 1.330343,5.387279 2.459729,9.950821 2.509746,10.141206 0.06185,0.235398 0.02367,0.344717 -0.119309,0.341661 -0.115638,-0.0025 -4.537174,-1.247383 -9.825635,-2.766474 z" id="path1182"/><path style="fill:#00ccff;fill-opacity:1;stroke-width:0.153846" d="m 47.107269,92.855115 c -5.398694,-1.551035 -9.843362,-2.847618 -9.877038,-2.881295 -0.03368,-0.03368 3.335377,-3.333853 7.486788,-7.333724 4.15141,-3.999872 7.570929,-7.249584 7.598932,-7.221582 0.05116,0.05116 4.991741,20.034815 4.991741,20.190581 0,0.04577 -0.08654,0.07936 -0.192307,0.07465 -0.10577,-0.0047 -4.609422,-1.277594 -10.008116,-2.828628 z" id="path1221"/><path style="fill:#00ccff;fill-opacity:1;stroke-width:0.153846" d="m 35.923077,44.074143 c -4.780769,-1.382021 -9.18383,-2.665311 -9.784579,-2.851754 l -1.092271,-0.338987 7.553809,-7.286821 c 6.075974,-5.861219 7.575864,-7.234351 7.666538,-7.018624 0.133071,0.316593 4.887272,19.659025 4.887272,19.883825 0,0.08448 -0.121154,0.147196 -0.269231,0.139366 -0.148077,-0.0078 -4.180769,-1.144982 -8.961538,-2.527005 z" id="path1260"/><path style="fill:#ff6600;fill-opacity:1;stroke-width:0.153846" d="m 41.237589,113.05122 c -0.124477,-0.36343 -5.142224,-20.813499 -5.112468,-20.836112 0.03303,-0.0251 19.814381,5.656781 20.446279,5.872871 0.405768,0.13876 0.234825,0.318646 -6.056755,6.373561 -8.749567,8.42044 -9.194059,8.832 -9.277056,8.58968 z" id="path2020"/><path style="fill:#ff6600;fill-opacity:1;stroke-width:0.153846" d="m 96.094885,59.904135 c -0.575682,-2.169644 -4.949246,-20.100259 -4.911237,-20.134943 0.03606,-0.03291 19.365712,5.490851 20.274122,5.793655 0.10709,0.0357 -2.4271,2.58601 -5.63153,5.667363 -3.20443,3.081354 -6.669283,6.427741 -7.699669,7.436415 l -1.873429,1.833955 z" id="path2059"/><path style="fill:#ff6600;fill-opacity:1;stroke-width:0.153846" d="M 20.480874,29.062733 C 19.07367,23.373517 17.939799,18.703083 17.961161,18.68399 c 0.02136,-0.01909 4.622294,1.283051 10.224295,2.893654 9.314059,2.677839 10.169589,2.950939 9.999999,3.192179 -0.143601,0.204272 -12.333961,11.995723 -14.665742,14.185832 l -0.480287,0.451107 z" id="path2098"/><path style="fill:#2affd5;fill-opacity:1;stroke-width:0.153846" d="m 35.077165,88.13266 c -1.012148,-4.03272 -4.952737,-20.06387 -4.937122,-20.085254 0.04403,-0.06029 19.864582,5.684669 19.981086,5.791486 0.06662,0.06108 -2.529534,2.666256 -5.769231,5.789276 -3.239698,3.12302 -6.63132,6.395901 -7.536939,7.27307 -1.521359,1.473567 -1.653515,1.567214 -1.737794,1.231422 z" id="path7412"/><path style="fill:#2affd5;fill-opacity:1;stroke-width:0.153846" d="M 26.548306,53.617806 C 25.158482,47.99191 24.06445,43.345807 24.117124,43.293133 c 0.08418,-0.08418 20.084745,5.572862 20.258478,5.729985 0.03735,0.03378 -0.308805,0.445834 -0.769231,0.915677 -1.271508,1.29751 -14.298933,13.824873 -14.4228,13.869174 -0.05957,0.02131 -1.245441,-4.564266 -2.635265,-10.190163 z" id="path7451"/><path style="fill:#2affd5;fill-opacity:1;stroke-width:0.153846" d="m 57.305983,85.46409 c -1.372251,-5.552571 -2.452506,-10.13808 -2.400568,-10.190018 0.09794,-0.09794 19.616703,5.460566 19.831297,5.647506 0.06673,0.05813 -2.390961,2.521339 -5.461538,5.473796 -3.070577,2.952458 -6.458414,6.222249 -7.528528,7.266203 l -1.945662,1.898098 z" id="path7490"/><path style="fill:#2affd5;fill-opacity:1;stroke-width:0.153846" d="m 77.923077,77.951474 c 0,-0.04135 -1.140969,-4.698689 -2.535488,-10.349637 -1.394518,-5.650948 -2.513725,-10.296214 -2.487126,-10.322813 0.04265,-0.04265 20.437483,5.777324 20.514659,5.854174 0.03194,0.0318 -12.187454,11.807522 -14.283356,13.764747 -0.664779,0.620793 -1.208689,1.094881 -1.208689,1.053529 z" id="path7529"/><path style="fill:#2affd5;fill-opacity:1;stroke-width:0.153846" d="m 69.332874,43.056497 c -1.376633,-5.59265 -2.471426,-10.199996 -2.432875,-10.238548 0.06045,-0.06045 19.952018,5.60218 20.064675,5.711909 0.02288,0.02228 -2.607891,2.591865 -5.846154,5.710182 -3.238263,3.118316 -6.651609,6.415597 -7.585214,7.327289 l -1.697463,1.657622 z" id="path7568"/><path style="fill:#2affd5;fill-opacity:1;stroke-width:0.153846" d="M 47.538896,45.817234 C 47.429457,45.519335 42.56023,25.772946 42.590004,25.747775 c 0.04998,-0.04225 19.930296,5.721243 20.010199,5.801147 0.07683,0.07683 -14.104094,13.835347 -14.70637,14.268312 -0.231705,0.166568 -0.293744,0.166568 -0.354937,0 z" id="path7607"/><path style="fill:#f9f9f9;fill-opacity:1;stroke-width:0.153846" d="M 53.324672,69.115385 C 53.15068,68.375 52.040903,63.859778 50.858501,59.081558 c -1.182402,-4.77822 -2.124606,-8.712889 -2.093786,-8.743709 0.06133,-0.06133 7.161455,1.965451 14.542977,4.151395 2.58077,0.764262 4.818053,1.42611 4.97174,1.470773 0.245463,0.07133 0.21741,0.146323 -0.230769,0.616854 -0.891314,0.935769 -14.261052,13.884667 -14.335918,13.884667 -0.03945,0 -0.214081,-0.605769 -0.388073,-1.346153 z" id="path7683" /></svg>
