{
  "accessors": [
    {
      "bufferView": 2,
      "componentType": 5126,
      "count": 786,
      "max": [
        0.4880923926830292,
        0.15054665505886078,
        0.45163998007774353
      ],
      "min": [
        -0.4880923926830292,
        -0.48689910769462585,
        -0.45163998007774353
      ],
      "type": "VEC3"
    },
    {
      "bufferView": 2,
      "byteOffset": 9432,
      "componentType": 5126,
      "count": 786,
      "max": [
        0.9992386698722839,
        0.27346017956733704,
        0.999999463558197
      ],
      "min": [
        -0.9992386698722839,
        -1.0,
        -0.9999995231628418
      ],
      "type": "VEC3"
    },
    {
      "bufferView": 1,
      "componentType": 5126,
      "count": 786,
      "max": [
        0.875,
        1.0
      ],
      "min": [
        0.125,
        0.0
      ],
      "type": "VEC2"
    },
    {
      "bufferView": 0,
      "componentType": 5125,
      "count": 4224,
      "type": "SCALAR"
    },
    {
      "bufferView": 2,
      "byteOffset": 18864,
      "componentType": 5126,
      "count": 369,
      "max": [
        0.4831434488296509,
        0.5,
        0.43839016556739807
      ],
      "min": [
        -0.4831434488296509,
        0.1312026083469391,
        -0.43839016556739807
      ],
      "type": "VEC3"
    },
    {
      "bufferView": 2,
      "byteOffset": 23292,
      "componentType": 5126,
      "count": 369,
      "max": [
        0.978983998298645,
        1.0,
        0.9620692133903503
      ],
      "min": [
        -0.978983998298645,
        0.2039371132850647,
        -0.9620692133903503
      ],
      "type": "VEC3"
    },
    {
      "bufferView": 1,
      "byteOffset": 6288,
      "componentType": 5126,
      "count": 369,
      "max": [
        0.875,
        0.5833333730697632
      ],
      "min": [
        0.125,
        0.1666666567325592
      ],
      "type": "VEC2"
    },
    {
      "bufferView": 0,
      "byteOffset": 16896,
      "componentType": 5125,
      "count": 1920,
      "type": "SCALAR"
    },
    {
      "bufferView": 2,
      "byteOffset": 27720,
      "componentType": 5126,
      "count": 185,
      "max": [
        1.4817500114440918,
        1.0000001192092896,
        1.4817498922348022
      ],
      "min": [
        -1.4817497730255127,
        -1.0000001192092896,
        -1.4817497730255127
      ],
      "type": "VEC3"
    },
    {
      "bufferView": 2,
      "byteOffset": 29940,
      "componentType": 5126,
      "count": 185,
      "max": [
        0.9835754632949829,
        1.0,
        0.9835754036903381
      ],
      "min": [
        -0.9835755228996277,
        -1.0,
        -0.9835755228996277
      ],
      "type": "VEC3"
    },
    {
      "bufferView": 1,
      "byteOffset": 9240,
      "componentType": 5126,
      "count": 185,
      "max": [
        0.65625,
        1.0
      ],
      "min": [
        0.34375,
        1.4901161193847656e-08
      ],
      "type": "VEC2"
    },
    {
      "bufferView": 0,
      "byteOffset": 24576,
      "componentType": 5125,
      "count": 864,
      "type": "SCALAR"
    },
    {
      "bufferView": 2,
      "byteOffset": 32160,
      "componentType": 5126,
      "count": 255,
      "max": [
        0.5,
        0.5,
        -0.25489765405654907
      ],
      "min": [
        -0.5,
        -0.5,
        -0.5
      ],
      "type": "VEC3"
    },
    {
      "bufferView": 2,
      "byteOffset": 35220,
      "componentType": 5126,
      "count": 255,
      "max": [
        1.0,
        1.0,
        1.0
      ],
      "min": [
        -1.0,
        -1.0,
        -1.0
      ],
      "type": "VEC3"
    },
    {
      "bufferView": 1,
      "byteOffset": 10720,
      "componentType": 5126,
      "count": 255,
      "max": [
        0.875,
        1.0
      ],
      "min": [
        0.125,
        0.0
      ],
      "type": "VEC2"
    },
    {
      "bufferView": 0,
      "byteOffset": 28032,
      "componentType": 5125,
      "count": 1296,
      "type": "SCALAR"
    },
    {
      "bufferView": 2,
      "byteOffset": 38280,
      "componentType": 5126,
      "count": 255,
      "max": [
        0.5,
        0.5,
        -0.25489765405654907
      ],
      "min": [
        -0.5,
        -0.5,
        -0.5
      ],
      "type": "VEC3"
    },
    {
      "bufferView": 2,
      "byteOffset": 41340,
      "componentType": 5126,
      "count": 255,
      "max": [
        1.0,
        1.0,
        1.0
      ],
      "min": [
        -1.0,
        -1.0,
        -1.0
      ],
      "type": "VEC3"
    },
    {
      "bufferView": 1,
      "byteOffset": 12760,
      "componentType": 5126,
      "count": 255,
      "max": [
        0.875,
        1.0
      ],
      "min": [
        0.125,
        0.0
      ],
      "type": "VEC2"
    },
    {
      "bufferView": 0,
      "byteOffset": 33216,
      "componentType": 5125,
      "count": 1296,
      "type": "SCALAR"
    },
    {
      "bufferView": 2,
      "byteOffset": 44400,
      "componentType": 5126,
      "count": 255,
      "max": [
        0.5,
        0.5,
        -0.25489765405654907
      ],
      "min": [
        -0.5,
        -0.5,
        -0.5
      ],
      "type": "VEC3"
    },
    {
      "bufferView": 2,
      "byteOffset": 47460,
      "componentType": 5126,
      "count": 255,
      "max": [
        1.0,
        1.0,
        1.0
      ],
      "min": [
        -1.0,
        -1.0,
        -1.0
      ],
      "type": "VEC3"
    },
    {
      "bufferView": 1,
      "byteOffset": 14800,
      "componentType": 5126,
      "count": 255,
      "max": [
        0.875,
        1.0
      ],
      "min": [
        0.125,
        0.0
      ],
      "type": "VEC2"
    },
    {
      "bufferView": 0,
      "byteOffset": 38400,
      "componentType": 5125,
      "count": 1296,
      "type": "SCALAR"
    },
    {
      "bufferView": 2,
      "byteOffset": 50520,
      "componentType": 5126,
      "count": 255,
      "max": [
        0.5,
        0.5,
        -0.25489765405654907
      ],
      "min": [
        -0.5,
        -0.5,
        -0.5
      ],
      "type": "VEC3"
    },
    {
      "bufferView": 2,
      "byteOffset": 53580,
      "componentType": 5126,
      "count": 255,
      "max": [
        1.0,
        1.0,
        1.0
      ],
      "min": [
        -1.0,
        -1.0,
        -1.0
      ],
      "type": "VEC3"
    },
    {
      "bufferView": 1,
      "byteOffset": 16840,
      "componentType": 5126,
      "count": 255,
      "max": [
        0.875,
        1.0
      ],
      "min": [
        0.125,
        0.0
      ],
      "type": "VEC2"
    },
    {
      "bufferView": 0,
      "byteOffset": 43584,
      "componentType": 5125,
      "count": 1296,
      "type": "SCALAR"
    }
  ],
  "asset": {
    "extras": {
      "author": "Fanatic Purifier (https://sketchfab.com/Fanatic_Purifier)",
      "license": "CC-BY-4.0 (http://creativecommons.org/licenses/by/4.0/)",
      "source": "https://sketchfab.com/3d-models/simple-rocket-84bb4a217e55445ba0950898d4373eb7",
      "title": "Simple Rocket"
    },
    "generator": "Sketchfab-11.60.0",
    "version": "2.0"
  },
  "bufferViews": [
    {
      "buffer": 0,
      "byteLength": 48768,
      "name": "floatBufferViews",
      "target": 34963
    },
    {
      "buffer": 0,
      "byteLength": 18880,
      "byteOffset": 48768,
      "byteStride": 8,
      "name": "floatBufferViews",
      "target": 34962
    },
    {
      "buffer": 0,
      "byteLength": 56640,
      "byteOffset": 67648,
      "byteStride": 12,
      "name": "floatBufferViews",
      "target": 34962
    }
  ],
  "buffers": [
    {
      "byteLength": 124288,
      "uri": "scene.bin"
    }
  ],
  "materials": [
    {
      "doubleSided": true,
      "name": "phong1",
      "pbrMetallicRoughness": {
        "metallicFactor": 0.0,
        "roughnessFactor": 0.8942628736559436
      }
    },
    {
      "doubleSided": true,
      "name": "blinn1",
      "pbrMetallicRoughness": {
        "baseColorFactor": [
          1.0,
          1.0,
          0.114465,
          1.0
        ],
        "metallicFactor": 0.0,
        "roughnessFactor": 0.9207483816249483
      }
    },
    {
      "doubleSided": true,
      "name": "lambert2",
      "pbrMetallicRoughness": {
        "baseColorFactor": [
          0.4107,
          0.0402,
          0.0659,
          1.0
        ],
        "metallicFactor": 0.0,
        "roughnessFactor": 0.6
      }
    },
    {
      "doubleSided": true,
      "name": "lambert3",
      "pbrMetallicRoughness": {
        "baseColorFactor": [
          0.0320796,
          0.504,
          0.0,
          1.0
        ],
        "metallicFactor": 0.0,
        "roughnessFactor": 0.6
      }
    }
  ],
  "meshes": [
    {
      "name": "pCube1_phong1_0",
      "primitives": [
        {
          "attributes": {
            "NORMAL": 1,
            "POSITION": 0,
            "TEXCOORD_0": 2
          },
          "indices": 3,
          "material": 0,
          "mode": 4
        }
      ]
    },
    {
      "name": "pCube1_blinn1_0",
      "primitives": [
        {
          "attributes": {
            "NORMAL": 5,
            "POSITION": 4,
            "TEXCOORD_0": 6
          },
          "indices": 7,
          "material": 1,
          "mode": 4
        }
      ]
    },
    {
      "name": "pCylinder1_lambert2_0",
      "primitives": [
        {
          "attributes": {
            "NORMAL": 9,
            "POSITION": 8,
            "TEXCOORD_0": 10
          },
          "indices": 11,
          "material": 2,
          "mode": 4
        }
      ]
    },
    {
      "name": "pCube2_lambert3_0",
      "primitives": [
        {
          "attributes": {
            "NORMAL": 13,
            "POSITION": 12,
            "TEXCOORD_0": 14
          },
          "indices": 15,
          "material": 3,
          "mode": 4
        }
      ]
    },
    {
      "name": "pCube3_lambert3_0",
      "primitives": [
        {
          "attributes": {
            "NORMAL": 17,
            "POSITION": 16,
            "TEXCOORD_0": 18
          },
          "indices": 19,
          "material": 3,
          "mode": 4
        }
      ]
    },
    {
      "name": "pCube4_lambert3_0",
      "primitives": [
        {
          "attributes": {
            "NORMAL": 21,
            "POSITION": 20,
            "TEXCOORD_0": 22
          },
          "indices": 23,
          "material": 3,
          "mode": 4
        }
      ]
    },
    {
      "name": "pCube5_lambert3_0",
      "primitives": [
        {
          "attributes": {
            "NORMAL": 25,
            "POSITION": 24,
            "TEXCOORD_0": 26
          },
          "indices": 27,
          "material": 3,
          "mode": 4
        }
      ]
    }
  ],
  "nodes": [
    {
      "children": [
        1
      ],
      "matrix": [
        1.0,
        0.0,
        0.0,
        0.0,
        0.0,
        2.220446049250313e-16,
        -1.0,
        0.0,
        0.0,
        1.0,
        2.220446049250313e-16,
        0.0,
        0.0,
        0.0,
        0.0,
        1.0
      ],
      "name": "Sketchfab_model"
    },
    {
      "children": [
        2
      ],
      "matrix": [
        0.009999999776482582,
        0.0,
        0.0,
        0.0,
        0.0,
        0.0,
        0.009999999776482582,
        0.0,
        0.0,
        -0.009999999776482582,
        0.0,
        0.0,
        0.0,
        0.0,
        0.0,
        1.0
      ],
      "name": "760ae68ec5084db781c51a0798edef1c.fbx"
    },
    {
      "children": [
        3,
        6,
        8,
        10,
        12,
        14
      ],
      "name": "RootNode"
    },
    {
      "children": [
        4,
        5
      ],
      "matrix": [
        1.1111111640930176,
        0.0,
        0.0,
        0.0,
        0.0,
        5.199270725250244,
        0.0,
        0.0,
        0.0,
        0.0,
        1.0,
        0.0,
        0.0,
        4.067365646362305,
        2.4019484519958496,
        1.0
      ],
      "name": "pCube1"
    },
    {
      "mesh": 0,
      "name": "pCube1_phong1_0"
    },
    {
      "mesh": 1,
      "name": "pCube1_blinn1_0"
    },
    {
      "children": [
        7
      ],
      "matrix": [
        0.21037162840366364,
        0.0,
        0.0,
        0.0,
        0.0,
        0.21037162840366364,
        0.0,
        0.0,
        0.0,
        0.0,
        0.21037162840366364,
        0.0,
        0.0,
        1.3630722761154175,
        2.40202260017395,
        1.0
      ],
      "name": "pCylinder1"
    },
    {
      "mesh": 2,
      "name": "pCylinder1_lambert2_0"
    },
    {
      "children": [
        9
      ],
      "matrix": [
        0.7467467784881592,
        0.0,
        0.0,
        0.0,
        0.0,
        1.7133824825286865,
        0.0,
        0.0,
        0.0,
        0.0,
        0.49864575266838074,
        0.0,
        0.704322338104248,
        2.4204726219177246,
        2.600581169128418,
        1.0
      ],
      "name": "pCube2"
    },
    {
      "mesh": 3,
      "name": "pCube2_lambert3_0"
    },
    {
      "children": [
        11
      ],
      "matrix": [
        -0.7467467784881592,
        9.14501052049122e-17,
        9.145010520491216e-17,
        0.0,
        2.0982883729439022e-16,
        1.7133824825286865,
        2.0982883729439022e-16,
        0.0,
        -6.106649249137551e-17,
        6.106649249137553e-17,
        -0.49864575266838074,
        0.0,
        -0.7053964138031006,
        2.4204726219177246,
        2.224154472351074,
        1.0
      ],
      "name": "pCube3"
    },
    {
      "mesh": 4,
      "name": "pCube3_lambert3_0"
    },
    {
      "children": [
        13
      ],
      "matrix": [
        1.6581109340844317e-16,
        0.0,
        -0.7467467784881592,
        0.0,
        0.0,
        1.7133824825286865,
        0.0,
        0.0,
        0.49864575266838074,
        0.0,
        1.1072159914879548e-16,
        0.0,
        0.19577817618846893,
        2.4204726219177246,
        1.7202531099319458,
        1.0
      ],
      "name": "pCube4"
    },
    {
      "mesh": 5,
      "name": "pCube4_lambert3_0"
    },
    {
      "children": [
        15
      ],
      "matrix": [
        1.6581109340844317e-16,
        0.0,
        0.7467467784881592,
        0.0,
        0.0,
        1.7133824825286865,
        0.0,
        0.0,
        -0.49864575266838074,
        0.0,
        1.1072159914879548e-16,
        0.0,
        -0.1839442104101181,
        2.4204726219177246,
        3.062896490097046,
        1.0
      ],
      "name": "pCube5"
    },
    {
      "mesh": 6,
      "name": "pCube5_lambert3_0"
    }
  ],
  "scene": 0,
  "scenes": [
    {
      "name": "Sketchfab_Scene",
      "nodes": [
        0
      ]
    }
  ]
}
